<svg xmlns="http://www.w3.org/2000/svg" xmlns:xlink="http://www.w3.org/1999/xlink" width="500" zoomAndPan="magnify" viewBox="0 0 375 374.999991" height="500" preserveAspectRatio="xMidYMid meet" version="1.0"><defs><clipPath id="2cb36861bf"><path d="M 201 107 L 366 107 L 366 338 L 201 338 Z M 201 107 " clip-rule="nonzero"/></clipPath><clipPath id="b21fff646c"><path d="M 271.160156 107.546875 L 394.492188 154.382812 L 324.976562 337.445312 L 201.640625 290.609375 Z M 271.160156 107.546875 " clip-rule="nonzero"/></clipPath><clipPath id="86c6296db8"><path d="M 515.847656 -47.566406 L -494.875 -431.390625 L -878.699219 579.332031 L 132.023438 963.15625 Z M 515.847656 -47.566406 " clip-rule="nonzero"/></clipPath><clipPath id="643c8a790b"><path d="M 515.847656 -47.566406 L -494.875 -431.390625 L -878.699219 579.332031 L 132.023438 963.15625 Z M 515.847656 -47.566406 " clip-rule="nonzero"/></clipPath><clipPath id="551620e53e"><path d="M 10 22 L 174 22 L 174 253 L 10 253 Z M 10 22 " clip-rule="nonzero"/></clipPath><clipPath id="6ccea11f0d"><path d="M 50.433594 22.539062 L 173.769531 69.375 L 104.25 252.4375 L -19.085938 205.601562 Z M 50.433594 22.539062 " clip-rule="nonzero"/></clipPath><clipPath id="2d7a0179bf"><path d="M 93.367188 -209.191406 L 1104.089844 174.632812 L 720.265625 1185.355469 L -290.457031 801.53125 Z M 93.367188 -209.191406 " clip-rule="nonzero"/></clipPath><clipPath id="db63e16c31"><path d="M 93.367188 -209.191406 L 1104.089844 174.632812 L 720.265625 1185.355469 L -290.457031 801.53125 Z M 93.367188 -209.191406 " clip-rule="nonzero"/></clipPath><clipPath id="c2290c1f91"><path d="M 77 45 L 299 45 L 299 314 L 77 314 Z M 77 45 " clip-rule="nonzero"/></clipPath><clipPath id="1423f46a5b"><path d="M 56.839844 128.917969 L 237.664062 45.496094 L 322.820312 230.085938 L 142 313.507812 Z M 56.839844 128.917969 " clip-rule="nonzero"/></clipPath><clipPath id="310581d04e"><path d="M -640.324219 20.101562 L 457.410156 -486.332031 L 963.847656 611.40625 L -133.890625 1117.839844 Z M -640.324219 20.101562 " clip-rule="nonzero"/></clipPath><clipPath id="1352c7f7f2"><path d="M -640.324219 20.101562 L 457.410156 -486.332031 L 963.847656 611.40625 L -133.890625 1117.839844 Z M -640.324219 20.101562 " clip-rule="nonzero"/></clipPath></defs><g clip-path="url(#2cb36861bf)"><g clip-path="url(#b21fff646c)"><g clip-path="url(#86c6296db8)"><g clip-path="url(#643c8a790b)"><path fill="#00fe85" d="M 270.292969 109.5625 L 329.113281 131.902344 L 306.777344 190.722656 L 247.953125 168.386719 Z M 343.265625 271.871094 L 284.441406 249.535156 L 306.777344 190.722656 L 365.597656 213.0625 Z M 262.105469 308.355469 L 203.285156 286.019531 L 225.621094 227.195312 L 284.441406 249.535156 Z M 180.945312 344.839844 L 122.125 322.503906 L 144.460938 263.679688 L 203.285156 286.019531 Z M 270.292969 109.5625 L 211.472656 87.226562 L 233.808594 28.402344 L 292.628906 50.742188 Z M 270.292969 109.5625 " fill-opacity="1" fill-rule="nonzero"/></g></g></g></g><g clip-path="url(#551620e53e)"><g clip-path="url(#6ccea11f0d)"><g clip-path="url(#2d7a0179bf)"><g clip-path="url(#db63e16c31)"><path fill="#00fe85" d="M 172.722656 71.324219 L 113.902344 48.988281 L 91.5625 107.808594 L 150.386719 130.148438 Z M 10.410156 144.28125 L 69.230469 166.621094 L 91.5625 107.808594 L 32.742188 85.472656 Z M 46.894531 225.441406 L 105.714844 247.78125 L 128.050781 188.957031 L 69.230469 166.621094 Z M 83.375 306.601562 L 142.199219 328.941406 L 164.535156 270.117188 L 105.714844 247.78125 Z M 172.722656 71.324219 L 231.546875 93.664062 L 253.882812 34.839844 L 195.0625 12.503906 Z M 172.722656 71.324219 " fill-opacity="1" fill-rule="nonzero"/></g></g></g></g><g clip-path="url(#c2290c1f91)"><g clip-path="url(#1423f46a5b)"><g clip-path="url(#310581d04e)"><g clip-path="url(#1352c7f7f2)"><path fill="#3792e7" d="M 237.484375 45.371094 L 176.503906 73.503906 L 204.636719 134.484375 L 265.617188 106.351562 Z M 106.085938 401.820312 L 167.070312 373.6875 L 138.933594 312.703125 L 77.953125 340.835938 Z M 138.933594 312.703125 L 199.917969 284.570312 L 171.785156 223.589844 L 110.800781 251.722656 Z M 171.785156 223.589844 L 232.765625 195.457031 L 204.636719 134.484375 L 143.65625 162.617188 Z M 237.484375 45.371094 L 298.453125 17.242188 L 270.320312 -43.738281 L 209.351562 -15.613281 Z M 237.484375 45.371094 " fill-opacity="1" fill-rule="nonzero"/></g></g></g></g></svg>